<?xml version="1.0" encoding="UTF-8"?>
<!DOCTYPE svg PUBLIC "-//W3C//DTD SVG 1.0//EN" "http://www.w3.org/TR/2001/REC-SVG-20010904/DTD/svg10.dtd">
<!-- Creator: CorelDRAW 2019 (64-Bit) -->
<svg xmlns="http://www.w3.org/2000/svg" xml:space="preserve" width="160px" height="69px" version="1.0" shape-rendering="geometricPrecision" text-rendering="geometricPrecision" image-rendering="optimizeQuality" fill-rule="evenodd" clip-rule="evenodd"
viewBox="0 0 110.413 47.49"
 xmlns:xlink="http://www.w3.org/1999/xlink"
 xmlns:xodm="http://www.corel.com/coreldraw/odm/2003">
 <g id="Layer_x0020_1">
  <metadata id="CorelCorpID_0Corel-Layer"/>
  <path fill="black" fill-rule="nonzero" d="M28.654 30.586l5.896 0 0 6.341 -5.896 0 0 10.545 -7.92 0 0 -10.545 -20.5 0 -0.234 -4.817 20.467 -32.092 8.187 0 0 30.568zm-20.345 0l12.425 0 0 -19.844 -0.589 1.045 -11.836 18.799zm96.208 0l5.896 0 0 6.341 -5.896 0 0 10.545 -7.92 0 0 -10.545 -20.5 0 -0.234 -4.817 20.467 -32.092 8.187 0 0 30.568zm-20.345 0l12.425 0 0 -19.844 -0.589 1.045 -11.836 18.799z"/>
  <path fill="black" d="M45.03 3.392l1.696 0 0 -1.696 1.696 0 0 -1.696c7.915,0 15.83,0 23.745,0 0,15.83 0,31.66 0,47.49 -11.307,0 -22.614,0 -33.921,0 0,-12.438 0,-24.875 0,-37.313l1.696 0 0 1.696 10.176 0 0 -10.177 -1.696 0 0 1.696 -1.696 0 0 1.696 -1.696 0 0 1.696 -1.696 0 0 1.696 -1.696 0 0 1.696 -1.696 0 0 -1.696 1.696 0 0 -1.696 1.696 0 0 -1.696 1.696 0 0 -1.696zm15.265 22.049l0 1.696 -1.696 0c0,-1.13 0,-2.261 0,-3.392l1.696 0 0 -1.696 -1.696 0c0,-1.131 0,-2.261 0,-3.392l1.696 0 0 1.696 1.696 0 0 1.696 1.696 0 0 -1.696 1.696 0 0 -1.696 1.696 0c0,1.131 0,2.261 0,3.392l-1.696 0 0 1.696 1.696 0c0,1.131 0,2.262 0,3.392l-1.696 0 0 -1.696 -1.696 0 0 -1.696 -1.696 0 0 1.696 -1.696 0zm-10.177 0l0 1.696 1.696 0c0,-1.13 0,-2.261 0,-3.392l-1.696 0 0 -1.696 1.696 0c0,-1.131 0,-2.261 0,-3.392l-1.696 0 0 1.696 -1.696 0 0 1.696 -1.696 0 0 -1.696 -1.696 0 0 -1.696 -1.696 0c0,1.131 0,2.261 0,3.392l1.696 0 0 1.696 -1.696 0c0,1.131 0,2.262 0,3.392l1.696 0 0 -1.696 1.696 0 0 -1.696 1.696 0 0 1.696 1.696 0zm16.961 11.873c-1.131,0 -2.261,0 -3.392,0l0 -1.696 -1.696 0 0 -1.696 -6.785 0c0,1.13 0,2.261 0,3.392l-1.696 0 0 1.696c-1.13,0 -2.261,0 -3.392,0l0 -1.696 -1.696 0 0 -1.696 -1.696 0 0 1.696c-1.131,0 -2.261,0 -3.392,0l0 -1.696 1.696 0 0 -1.696 1.696 0 0 -1.696c5.653,0 11.307,0 16.961,0l0 1.696 1.696 0 0 1.696 1.696 0 0 1.696zm-13.569 -3.392l-3.392 0 0 3.392c1.131,0 2.262,0 3.392,0 0,-1.131 0,-2.262 0,-3.392zm16.961 -32.226c-6.219,0 -12.438,0 -18.657,0 0,3.958 0,7.915 0,11.873 -3.957,0 -7.915,0 -11.872,0 0,10.742 0,21.483 0,32.225 10.176,0 20.353,0 30.529,0 0,-14.699 0,-29.398 0,-44.098z"/>
 </g>
</svg>
