<?xml version="1.0" encoding="UTF-8"?>
<!DOCTYPE svg PUBLIC "-//W3C//DTD SVG 1.0//EN" "http://www.w3.org/TR/2001/REC-SVG-20010904/DTD/svg10.dtd">
<!-- Creator: CorelDRAW 2019 (64-Bit) -->
<svg xmlns="http://www.w3.org/2000/svg" xml:space="preserve" width="166px" height="75px" version="1.0" shape-rendering="geometricPrecision" text-rendering="geometricPrecision" image-rendering="optimizeQuality" fill-rule="evenodd" clip-rule="evenodd"
viewBox="0 0 115.894 52.618"
 xmlns:xlink="http://www.w3.org/1999/xlink"
 xmlns:xodm="http://www.corel.com/coreldraw/odm/2003">
 <g id="Layer_x0020_1">
  <metadata id="CorelCorpID_0Corel-Layer"/>
  <path fill="black" d="M0 0l115.894 0 0 52.618 -115.894 0 0 -52.618zm30.885 33.415l5.992 0 0 6.443 -5.992 0 0 10.717 -8.049 0 0 -10.717 -20.834 0 -0.238 -4.894 20.801 -32.614 8.32 0 0 31.065zm16.642 -27.637l1.724 0 0 -1.723 1.724 0 0 -1.724c8.044,0 16.087,0 24.131,0 0,16.088 0,32.176 0,48.263 -11.491,0 -22.982,0 -34.474,0 0,-12.64 0,-25.28 0,-37.921l1.724 0 0 1.724 10.342 0 0 -10.342 -1.723 0 0 1.723 -1.724 0 0 1.724 -1.724 0 0 1.724 -1.724 0 0 1.723 -1.723 0 0 1.724 -1.724 0 0 -1.724 1.724 0 0 -1.723 1.723 0 0 -1.724 1.724 0 0 -1.724zm15.513 22.408l0 1.724 -1.723 0c0,-1.149 0,-2.298 0,-3.447l1.723 0 0 -1.724 -1.723 0c0,-1.149 0,-2.298 0,-3.448l1.723 0 0 1.724 1.724 0 0 1.724 1.724 0 0 -1.724 1.724 0 0 -1.724 1.723 0c0,1.15 0,2.299 0,3.448l-1.723 0 0 1.724 1.723 0c0,1.149 0,2.298 0,3.447l-1.723 0 0 -1.724 -1.724 0 0 -1.723 -1.724 0 0 1.723 -1.724 0zm-10.342 0l0 1.724 1.724 0c0,-1.149 0,-2.298 0,-3.447l-1.724 0 0 -1.724 1.724 0c0,-1.149 0,-2.298 0,-3.448l-1.724 0 0 1.724 -1.723 0 0 1.724 -1.724 0 0 -1.724 -1.724 0 0 -1.724 -1.724 0c0,1.15 0,2.299 0,3.448l1.724 0 0 1.724 -1.724 0c0,1.149 0,2.298 0,3.447l1.724 0 0 -1.724 1.724 0 0 -1.723 1.724 0 0 1.723 1.723 0zm17.237 12.066c-1.149,0 -2.298,0 -3.447,0l0 -1.724 -1.724 0 0 -1.723 -6.895 0c0,1.149 0,2.298 0,3.447l-1.723 0 0 1.724c-1.15,0 -2.299,0 -3.448,0l0 -1.724 -1.723 0 0 -1.724 -1.724 0 0 1.724c-1.149,0 -2.298,0 -3.448,0l0 -1.724 1.724 0 0 -1.723 1.724 0 0 -1.724c5.745,0 11.491,0 17.237,0l0 1.724 1.724 0 0 1.723 1.723 0 0 1.724zm-13.789 -3.447l-3.448 0 0 3.447c1.149,0 2.298,0 3.448,0 0,-1.149 0,-2.298 0,-3.447zm17.237 -32.75c-6.321,0 -12.641,0 -18.961,0 0,4.022 0,8.044 0,12.065 -4.022,0 -8.044,0 -12.066,0 0,10.917 0,21.834 0,32.751 10.342,0 20.684,0 31.027,0 0,-14.939 0,-29.878 0,-44.816zm-63.174 29.36l12.627 0 0 -20.168 -0.599 1.063 -12.028 19.105zm97.774 0l5.991 0 0 6.443 -5.991 0 0 10.717 -8.049 0 0 -10.717 -20.834 0 -0.238 -4.894 20.801 -32.614 8.32 0 0 31.065zm-20.676 0l12.627 0 0 -20.168 -0.599 1.063 -12.028 19.105z"/>
 </g>
</svg>
