<?xml version="1.0" encoding="UTF-8"?>
<!DOCTYPE svg PUBLIC "-//W3C//DTD SVG 1.0//EN" "http://www.w3.org/TR/2001/REC-SVG-20010904/DTD/svg10.dtd">
<!-- Creator: CorelDRAW 2019 (64-Bit) -->
<svg xmlns="http://www.w3.org/2000/svg" xml:space="preserve" width="256px" height="256px" version="1.0" shape-rendering="geometricPrecision" text-rendering="geometricPrecision" image-rendering="optimizeQuality" fill-rule="evenodd" clip-rule="evenodd"
viewBox="0 0 27.398 27.398"
 xmlns:xlink="http://www.w3.org/1999/xlink"
 xmlns:xodm="http://www.corel.com/coreldraw/odm/2003">
 <g id="Layer_x0020_1">
  <metadata id="CorelCorpID_0Corel-Layer"/>
  <path fill="#1A1A1A" d="M27.398 27.398l-0.856 0 -12.843 -12.843 -12.843 12.843 -0.856 0 0 -0.856 12.843 -12.843 -12.843 -12.843 0 -0.856 0.856 0 12.843 12.843 12.843 -12.843 0.856 0 0 0.856 -12.843 12.843 12.843 12.843 0 0.856zm-1.712 0l-0.857 0 -11.13 -11.131 -11.131 11.131 -0.856 0 11.987 -11.987 11.987 11.987zm-1.713 0l-0.856 0 -9.418 -9.418 -9.418 9.418 -0.856 0 10.274 -10.274 10.274 10.274zm-1.712 0l-0.856 0 -7.706 -7.706 -7.706 7.706 -0.856 0 8.562 -8.562 8.562 8.562zm-1.712 0l-0.856 0 -5.994 -5.994 -5.994 5.994 -0.856 0 6.85 -6.85 6.85 6.85zm-1.713 0l-0.856 0 -4.281 -4.281 -4.281 4.281 -0.856 0 5.137 -5.137 5.137 5.137zm-1.712 0l-0.856 0 -2.569 -2.569 -2.569 2.569 -0.856 0 3.425 -3.425 3.425 3.425zm-1.712 0l-0.856 0 -0.857 -0.857 -0.857 0.857 -0.856 0 1.713 -1.713 1.713 1.713zm-15.412 -1.712l0 -0.857 11.13 -11.13 -11.13 -11.131 0 -0.856 11.987 11.987 -11.987 11.987zm0 -1.713l0 -0.856 9.418 -9.418 -9.418 -9.418 0 -0.856 10.274 10.274 -10.274 10.274zm0 -1.712l0 -0.856 7.706 -7.706 -7.706 -7.706 0 -0.856 8.562 8.562 -8.562 8.562zm0 -1.712l0 -0.856 5.994 -5.994 -5.994 -5.994 0 -0.856 6.85 6.85 -6.85 6.85zm0 -1.713l0 -0.856 4.281 -4.281 -4.281 -4.281 0 -0.856 5.137 5.137 -5.137 5.137zm0 -1.712l0 -0.856 2.569 -2.569 -2.569 -2.569 0 -0.856 3.425 3.425 -3.425 3.425zm0 -1.712l0 -0.856 0.857 -0.857 -0.857 -0.857 0 -0.856 1.713 1.713 -1.713 1.713zm1.712 -15.412l0.856 0 11.131 11.13 11.13 -11.13 0.857 0 -11.987 11.987 -11.987 -11.987zm1.713 0l0.856 0 9.418 9.418 9.418 -9.418 0.856 0 -10.274 10.274 -10.274 -10.274zm1.712 0l0.856 0 7.706 7.706 7.706 -7.706 0.856 0 -8.562 8.562 -8.562 -8.562zm1.712 0l0.856 0 5.994 5.994 5.994 -5.994 0.856 0 -6.85 6.85 -6.85 -6.85zm1.713 0l0.856 0 4.281 4.281 4.281 -4.281 0.856 0 -5.137 5.137 -5.137 -5.137zm1.712 0l0.856 0 2.569 2.569 2.569 -2.569 0.856 0 -3.425 3.425 -3.425 -3.425zm1.712 0l0.856 0 0.857 0.857 0.857 -0.857 0.856 0 -1.713 1.713 -1.713 -1.713zm15.412 1.712l0 0.856 -11.131 11.131 11.131 11.13 0 0.857 -11.987 -11.987 11.987 -11.987zm0 1.713l0 0.856 -9.418 9.418 9.418 9.418 0 0.856 -10.274 -10.274 10.274 -10.274zm0 1.712l0 0.856 -7.706 7.706 7.706 7.706 0 0.856 -8.562 -8.562 8.562 -8.562zm0 1.712l0 0.856 -5.994 5.994 5.994 5.994 0 0.856 -6.85 -6.85 6.85 -6.85zm0 1.713l0 0.856 -4.281 4.281 4.281 4.281 0 0.856 -5.137 -5.137 5.137 -5.137zm0 1.712l0 0.856 -2.569 2.569 2.569 2.569 0 0.856 -3.425 -3.425 3.425 -3.425zm0 1.712l0 0.856 -0.857 0.857 0.857 0.857 0 0.856 -1.713 -1.713 1.713 -1.713z"/>
 </g>
</svg>
